P2
# Created by IrfanView
10 10
255
254 254 254 254 254 254 254 254 254 254 
254 254 254 254 0 254 254 254 254 254 
254 0 0 0 0 254 254 254 0 254 
254 254 254 254 0 254 254 254 0 254 
254 254 254 254 254 254 254 254 0 254 
254 254 254 0 254 254 254 254 254 254 
254 254 254 0 254 254 0 254 254 254 
254 254 254 0 0 0 0 0 254 254 
254 254 254 0 254 254 254 254 254 254 
254 254 254 254 254 254 254 254 254 254 
